I got it from MYP2P.CA so ya know its real.
This file is in FLV format so VLC media player will play it no problem.

Video
Format                           : H.263
Duration                         : 1h 28mn
Bit rate                         : 354 Kbps
Width                            : 480 pixels
Height                           : 272 pixels
Display aspect ratio             : 16:9
Frame rate                       : 23.976 fps
Bits/(Pixel*Frame)               : 0.113
Stream size                      : 230 MiB (73%)

Audio
Format                           : MPEG Audio
Format version                   : Version 2
Format profile                   : Layer 3
Format_Settings_Mode             : Joint stereo / MS Stereo
Duration                         : 1h 28mn
Bit rate mode                    : Constant
Bit rate                         : 128 Kbps
Channel(s)                       : 2 channels
Sampling rate                    : 22.05 KHz
Resolution                       : 16 bits
Stream size                      : 83.1 MiB (26%)
Writing library                  : LAME3.98.2

